<svg width="22" height="22" viewBox="0 0 22 22" fill="none" xmlns="http://www.w3.org/2000/svg">
<rect width="22" height="22" rx="5" fill="#F0802C"/>
<path d="M16.97 8.4665C16.8186 6.96747 16.1243 5.57858 15.0214 4.5687C13.9187 3.55889 12.4856 2.99987 10.9997 3C9.51388 3.00013 8.08093 3.55914 6.97803 4.56908C5.87525 5.57912 5.18109 6.96801 5.02997 8.46719C5.00979 8.67255 4.99977 8.87878 5.00001 9.08513C4.99964 9.28764 5.0093 9.49002 5.02899 9.69155C5.2629 13.2995 8.75645 17.1903 10.7839 18.9202V18.9203C10.9095 19.027 11.0926 19.0266 11.2176 18.9189C13.2459 17.1685 16.7402 13.2554 16.97 9.70301C17.0101 9.2918 17.01 8.87748 16.9699 8.46627L16.97 8.4665ZM11 12.4468C10.1209 12.4463 9.27805 12.0918 8.65667 11.461C8.03538 10.8303 7.68655 9.97495 7.68702 9.08345C7.68751 8.19183 8.0371 7.3369 8.65911 6.70684C9.28099 6.07661 10.1243 5.72296 11.0034 5.72344C11.8825 5.72381 12.7255 6.07849 13.3467 6.70919C13.9681 7.34002 14.3169 8.19519 14.3165 9.08682C14.315 9.97806 13.965 10.8323 13.3433 11.4623C12.7215 12.0922 11.8788 12.4463 11 12.4468Z" fill="white"/>
</svg>
